<?xml version="1.0" encoding="utf-8"?>
<svg version="1.1" id="logo" xmlns="http://www.w3.org/2000/svg" xmlns:xlink="http://www.w3.org/1999/xlink" x="0px" y="0px"
	 viewBox="0 0 500 500" style="enable-background:new 0 0 500 500;" xml:space="preserve">
<g>
	<path d="M478.5,305c-5.3,14.6-22.7,59.5-70.5,87.2c-30.3,17.5-59.6,20.5-76.2,20.8c-11.8,0-23.5,0-35.3,0
		c-2.1-4.2-4.3-8.5-6.4-12.8c-2.6-5.4-5.2-10.7-7.6-16c16.9,0,33.8,0,50.6,0c66.2-12.4,116.1-59.6,124.6-115.6
		c7.5-49.3-19.6-88.8-23.1-93.7c-25.9-36.6-63.1-48.1-77.8-52.7c-16.9-5.2-31.7-6.8-42.3-7.2c-13.7,0-27.4,0-41.1,0
		c-4.9-9.4-9.8-18.8-14.7-28.1c23,0,46,0,69,0c14.8,1.5,36.9,5.4,61.4,16.5c13.9,6.3,34.3,16.2,53.9,36.5
		c5.1,5.3,27.7,29.4,39.1,68.8c4.4,15.1,5.9,28.3,6.4,37.7C488.6,260.1,487.1,281.2,478.5,305z"/>
	<path d="M298.7,356.8c-9.4,0-18.9,0-28.3,0c-34.3-71.7-68.7-143.4-103-215.2c-42.6,90.5-85.3,181-127.9,271.5c-8.1,0-16.8,0-28,0
		c52-108.8,104-217.5,156-326.2C211.1,176.9,254.9,266.8,298.7,356.8z"/>
	<path d="M109.2,335.6c3.8-9.8,7.7-19.6,11.5-29.4c30,0,60.1,0,90.1,0c4.5,9.8,8.9,19.6,13.4,29.4
		C185.9,335.6,147.5,335.6,109.2,335.6z" fill="#FFD700"/>
	<path d="M244.7,115c-9.8,0-19.6,0-29.4,0c-5.1-9.4-10.2-18.8-15.3-28.1c10.4,0,20.9,0,31.3,0
		C235.8,96.3,240.2,105.6,244.7,115z" fill="#FFD700"/>
</g>
</svg>
